<mxfile host="app.diagrams.net" agent="Mozilla/5.0 (Windows NT 10.0; Win64; x64) AppleWebKit/537.36 (KHTML, like Gecko) Chrome/116.0.5845.97 Safari/537.36 SE 2.X MetaSr 1.0" version="26.1.0">
  <diagram name="第 1 页" id="ACNqYUhPT8duwa31DQT3">
    <mxGraphModel dx="1434" dy="751" grid="0" gridSize="10" guides="1" tooltips="1" connect="1" arrows="1" fold="1" page="1" pageScale="1" pageWidth="1169" pageHeight="827" math="0" shadow="0">
      <root>
        <mxCell id="0" />
        <mxCell id="1" parent="0" />
        <mxCell id="Lb71lkAeECrjLEzcPBdM-39" value="" style="rounded=0;whiteSpace=wrap;html=1;dashed=1;dashPattern=12 12;" vertex="1" parent="1">
          <mxGeometry x="946" y="87" width="195" height="350" as="geometry" />
        </mxCell>
        <mxCell id="Lb71lkAeECrjLEzcPBdM-20" value="" style="rounded=0;whiteSpace=wrap;html=1;dashed=1;dashPattern=12 12;" vertex="1" parent="1">
          <mxGeometry x="763" y="21" width="149" height="416" as="geometry" />
        </mxCell>
        <mxCell id="Lb71lkAeECrjLEzcPBdM-40" value="" style="rounded=0;whiteSpace=wrap;html=1;strokeColor=light-dark(#000000, #0085c9);fillStyle=auto;gradientColor=none;fillColor=none;strokeWidth=1;" vertex="1" parent="1">
          <mxGeometry x="778" y="31" width="118" height="395" as="geometry" />
        </mxCell>
        <mxCell id="VEZZ6-Exy-V9Ar4nWLS9-1" value="" style="rounded=0;whiteSpace=wrap;html=1;dashed=1;dashPattern=12 12;" parent="1" vertex="1">
          <mxGeometry x="14" y="21" width="732" height="416" as="geometry" />
        </mxCell>
        <mxCell id="Lb71lkAeECrjLEzcPBdM-9" style="edgeStyle=orthogonalEdgeStyle;rounded=0;orthogonalLoop=1;jettySize=auto;html=1;exitX=1;exitY=0.5;exitDx=0;exitDy=0;entryX=0;entryY=0.5;entryDx=0;entryDy=0;" edge="1" parent="1" source="Lb71lkAeECrjLEzcPBdM-1" target="Lb71lkAeECrjLEzcPBdM-2">
          <mxGeometry relative="1" as="geometry" />
        </mxCell>
        <mxCell id="Lb71lkAeECrjLEzcPBdM-1" value="业务数据" style="rounded=0;whiteSpace=wrap;html=1;" vertex="1" parent="1">
          <mxGeometry x="55" y="84" width="120" height="60" as="geometry" />
        </mxCell>
        <mxCell id="Lb71lkAeECrjLEzcPBdM-2" value="DataX" style="rounded=0;whiteSpace=wrap;html=1;" vertex="1" parent="1">
          <mxGeometry x="345" y="84" width="120" height="60" as="geometry" />
        </mxCell>
        <mxCell id="Lb71lkAeECrjLEzcPBdM-3" value="HDFS" style="rounded=0;whiteSpace=wrap;html=1;rotation=0;" vertex="1" parent="1">
          <mxGeometry x="642" y="94" width="82" height="314" as="geometry" />
        </mxCell>
        <mxCell id="Lb71lkAeECrjLEzcPBdM-18" value="" style="edgeStyle=orthogonalEdgeStyle;rounded=0;orthogonalLoop=1;jettySize=auto;html=1;" edge="1" parent="1" source="Lb71lkAeECrjLEzcPBdM-5" target="Lb71lkAeECrjLEzcPBdM-7">
          <mxGeometry relative="1" as="geometry" />
        </mxCell>
        <mxCell id="Lb71lkAeECrjLEzcPBdM-5" value="生成Flume" style="rounded=0;whiteSpace=wrap;html=1;" vertex="1" parent="1">
          <mxGeometry x="200" y="348" width="120" height="60" as="geometry" />
        </mxCell>
        <mxCell id="Lb71lkAeECrjLEzcPBdM-6" value="消费Flume" style="rounded=0;whiteSpace=wrap;html=1;" vertex="1" parent="1">
          <mxGeometry x="485" y="348" width="120" height="60" as="geometry" />
        </mxCell>
        <mxCell id="Lb71lkAeECrjLEzcPBdM-17" value="" style="edgeStyle=orthogonalEdgeStyle;rounded=0;orthogonalLoop=1;jettySize=auto;html=1;" edge="1" parent="1" source="Lb71lkAeECrjLEzcPBdM-4" target="Lb71lkAeECrjLEzcPBdM-5">
          <mxGeometry relative="1" as="geometry" />
        </mxCell>
        <mxCell id="Lb71lkAeECrjLEzcPBdM-4" value="日志文件" style="rounded=0;whiteSpace=wrap;html=1;" vertex="1" parent="1">
          <mxGeometry x="55" y="348" width="120" height="60" as="geometry" />
        </mxCell>
        <mxCell id="Lb71lkAeECrjLEzcPBdM-19" value="" style="edgeStyle=orthogonalEdgeStyle;rounded=0;orthogonalLoop=1;jettySize=auto;html=1;" edge="1" parent="1" source="Lb71lkAeECrjLEzcPBdM-7" target="Lb71lkAeECrjLEzcPBdM-6">
          <mxGeometry relative="1" as="geometry" />
        </mxCell>
        <mxCell id="Lb71lkAeECrjLEzcPBdM-7" value="Kafka集群" style="rounded=0;whiteSpace=wrap;html=1;" vertex="1" parent="1">
          <mxGeometry x="345" y="348" width="120" height="60" as="geometry" />
        </mxCell>
        <mxCell id="Lb71lkAeECrjLEzcPBdM-13" value="" style="edgeStyle=orthogonalEdgeStyle;rounded=0;orthogonalLoop=1;jettySize=auto;html=1;" edge="1" parent="1" source="Lb71lkAeECrjLEzcPBdM-8" target="Lb71lkAeECrjLEzcPBdM-7">
          <mxGeometry relative="1" as="geometry" />
        </mxCell>
        <mxCell id="Lb71lkAeECrjLEzcPBdM-8" value="分布式协调&lt;div&gt;Zookeeper&lt;/div&gt;" style="rounded=1;whiteSpace=wrap;html=1;" vertex="1" parent="1">
          <mxGeometry x="345" y="248" width="120" height="60" as="geometry" />
        </mxCell>
        <mxCell id="Lb71lkAeECrjLEzcPBdM-11" value="" style="endArrow=classic;html=1;rounded=0;exitX=1;exitY=0.5;exitDx=0;exitDy=0;entryX=0;entryY=0.75;entryDx=0;entryDy=0;" edge="1" parent="1" source="Lb71lkAeECrjLEzcPBdM-6" target="Lb71lkAeECrjLEzcPBdM-3">
          <mxGeometry width="50" height="50" relative="1" as="geometry">
            <mxPoint x="592" y="301" as="sourcePoint" />
            <mxPoint x="642" y="251" as="targetPoint" />
          </mxGeometry>
        </mxCell>
        <mxCell id="Lb71lkAeECrjLEzcPBdM-12" value="" style="endArrow=classic;html=1;rounded=0;exitX=1;exitY=0.5;exitDx=0;exitDy=0;entryX=0;entryY=0.25;entryDx=0;entryDy=0;" edge="1" parent="1" target="Lb71lkAeECrjLEzcPBdM-3">
          <mxGeometry width="50" height="50" relative="1" as="geometry">
            <mxPoint x="465" y="115" as="sourcePoint" />
            <mxPoint x="642" y="252" as="targetPoint" />
          </mxGeometry>
        </mxCell>
        <mxCell id="Lb71lkAeECrjLEzcPBdM-21" value="原始数据层&lt;div&gt;ODS&lt;/div&gt;" style="rounded=0;whiteSpace=wrap;html=1;" vertex="1" parent="1">
          <mxGeometry x="793.5" y="54" width="83" height="60" as="geometry" />
        </mxCell>
        <mxCell id="Lb71lkAeECrjLEzcPBdM-22" value="数据明细层&lt;div&gt;DWD&lt;/div&gt;" style="rounded=0;whiteSpace=wrap;html=1;" vertex="1" parent="1">
          <mxGeometry x="793.5" y="129" width="83" height="60" as="geometry" />
        </mxCell>
        <mxCell id="Lb71lkAeECrjLEzcPBdM-23" value="数据服务层&lt;div&gt;DWS&lt;/div&gt;" style="rounded=0;whiteSpace=wrap;html=1;" vertex="1" parent="1">
          <mxGeometry x="793.5" y="204" width="83" height="60" as="geometry" />
        </mxCell>
        <mxCell id="Lb71lkAeECrjLEzcPBdM-24" value="公共维度层&lt;div&gt;DIM&lt;/div&gt;" style="rounded=0;whiteSpace=wrap;html=1;" vertex="1" parent="1">
          <mxGeometry x="793.5" y="279" width="83" height="60" as="geometry" />
        </mxCell>
        <mxCell id="Lb71lkAeECrjLEzcPBdM-47" style="edgeStyle=orthogonalEdgeStyle;rounded=0;orthogonalLoop=1;jettySize=auto;html=1;entryX=0;entryY=0.5;entryDx=0;entryDy=0;exitX=0.993;exitY=0.873;exitDx=0;exitDy=0;exitPerimeter=0;" edge="1" parent="1" source="Lb71lkAeECrjLEzcPBdM-20" target="Lb71lkAeECrjLEzcPBdM-42">
          <mxGeometry relative="1" as="geometry">
            <mxPoint x="912" y="384" as="sourcePoint" />
          </mxGeometry>
        </mxCell>
        <mxCell id="Lb71lkAeECrjLEzcPBdM-25" value="数据应用层&lt;div&gt;ADS&lt;/div&gt;" style="rounded=0;whiteSpace=wrap;html=1;" vertex="1" parent="1">
          <mxGeometry x="793.5" y="354" width="83" height="60" as="geometry" />
        </mxCell>
        <mxCell id="Lb71lkAeECrjLEzcPBdM-27" value="&lt;font style=&quot;font-size: 11px;&quot;&gt;数据仓库&lt;/font&gt;" style="text;strokeColor=none;fillColor=none;html=1;fontSize=24;fontStyle=1;verticalAlign=middle;align=center;" vertex="1" parent="1">
          <mxGeometry x="780.5" y="431" width="109" height="41" as="geometry" />
        </mxCell>
        <mxCell id="Lb71lkAeECrjLEzcPBdM-28" value="&lt;font style=&quot;font-size: 11px;&quot;&gt;数据采集&lt;/font&gt;" style="text;strokeColor=none;fillColor=none;html=1;fontSize=24;fontStyle=1;verticalAlign=middle;align=center;" vertex="1" parent="1">
          <mxGeometry x="325.5" y="431" width="109" height="41" as="geometry" />
        </mxCell>
        <mxCell id="Lb71lkAeECrjLEzcPBdM-33" style="edgeStyle=orthogonalEdgeStyle;rounded=0;orthogonalLoop=1;jettySize=auto;html=1;" edge="1" parent="1" source="Lb71lkAeECrjLEzcPBdM-3">
          <mxGeometry relative="1" as="geometry">
            <mxPoint x="781" y="251" as="targetPoint" />
          </mxGeometry>
        </mxCell>
        <mxCell id="Lb71lkAeECrjLEzcPBdM-34" value="" style="endArrow=classic;html=1;rounded=0;exitX=0.5;exitY=1;exitDx=0;exitDy=0;entryX=0.5;entryY=0;entryDx=0;entryDy=0;" edge="1" parent="1" source="Lb71lkAeECrjLEzcPBdM-21" target="Lb71lkAeECrjLEzcPBdM-22">
          <mxGeometry width="50" height="50" relative="1" as="geometry">
            <mxPoint x="929" y="176" as="sourcePoint" />
            <mxPoint x="979" y="126" as="targetPoint" />
          </mxGeometry>
        </mxCell>
        <mxCell id="Lb71lkAeECrjLEzcPBdM-36" value="" style="endArrow=classic;html=1;rounded=0;exitX=0.5;exitY=1;exitDx=0;exitDy=0;entryX=0.5;entryY=0;entryDx=0;entryDy=0;" edge="1" parent="1" source="Lb71lkAeECrjLEzcPBdM-22" target="Lb71lkAeECrjLEzcPBdM-23">
          <mxGeometry width="50" height="50" relative="1" as="geometry">
            <mxPoint x="820" y="236" as="sourcePoint" />
            <mxPoint x="870" y="186" as="targetPoint" />
          </mxGeometry>
        </mxCell>
        <mxCell id="Lb71lkAeECrjLEzcPBdM-37" value="" style="endArrow=classic;html=1;rounded=0;exitX=0.5;exitY=1;exitDx=0;exitDy=0;entryX=0.5;entryY=0;entryDx=0;entryDy=0;" edge="1" parent="1" source="Lb71lkAeECrjLEzcPBdM-23" target="Lb71lkAeECrjLEzcPBdM-24">
          <mxGeometry width="50" height="50" relative="1" as="geometry">
            <mxPoint x="827" y="299" as="sourcePoint" />
            <mxPoint x="877" y="249" as="targetPoint" />
          </mxGeometry>
        </mxCell>
        <mxCell id="Lb71lkAeECrjLEzcPBdM-38" value="" style="endArrow=classic;html=1;rounded=0;exitX=0.5;exitY=1;exitDx=0;exitDy=0;entryX=0.5;entryY=0;entryDx=0;entryDy=0;" edge="1" parent="1" source="Lb71lkAeECrjLEzcPBdM-24" target="Lb71lkAeECrjLEzcPBdM-25">
          <mxGeometry width="50" height="50" relative="1" as="geometry">
            <mxPoint x="852" y="374" as="sourcePoint" />
            <mxPoint x="902" y="324" as="targetPoint" />
          </mxGeometry>
        </mxCell>
        <mxCell id="Lb71lkAeECrjLEzcPBdM-41" value="&lt;font style=&quot;font-size: 10px;&quot;&gt;Hive on Spark&lt;/font&gt;" style="text;strokeColor=none;fillColor=none;html=1;fontSize=24;fontStyle=1;verticalAlign=middle;align=center;" vertex="1" parent="1">
          <mxGeometry x="787.5" y="18" width="100" height="40" as="geometry" />
        </mxCell>
        <mxCell id="Lb71lkAeECrjLEzcPBdM-45" value="" style="edgeStyle=orthogonalEdgeStyle;rounded=0;orthogonalLoop=1;jettySize=auto;html=1;" edge="1" parent="1" source="Lb71lkAeECrjLEzcPBdM-42" target="Lb71lkAeECrjLEzcPBdM-43">
          <mxGeometry relative="1" as="geometry" />
        </mxCell>
        <mxCell id="Lb71lkAeECrjLEzcPBdM-42" value="DataX" style="rounded=0;whiteSpace=wrap;html=1;" vertex="1" parent="1">
          <mxGeometry x="990.5" y="354" width="106" height="60" as="geometry" />
        </mxCell>
        <mxCell id="Lb71lkAeECrjLEzcPBdM-46" value="" style="edgeStyle=orthogonalEdgeStyle;rounded=0;orthogonalLoop=1;jettySize=auto;html=1;" edge="1" parent="1" source="Lb71lkAeECrjLEzcPBdM-43" target="Lb71lkAeECrjLEzcPBdM-44">
          <mxGeometry relative="1" as="geometry" />
        </mxCell>
        <mxCell id="Lb71lkAeECrjLEzcPBdM-43" value="MySQL" style="rounded=0;whiteSpace=wrap;html=1;" vertex="1" parent="1">
          <mxGeometry x="990.5" y="241" width="106" height="60" as="geometry" />
        </mxCell>
        <mxCell id="Lb71lkAeECrjLEzcPBdM-44" value="可视化端&lt;div&gt;如Superset&lt;/div&gt;" style="rounded=0;whiteSpace=wrap;html=1;" vertex="1" parent="1">
          <mxGeometry x="990.5" y="129" width="106" height="60" as="geometry" />
        </mxCell>
        <mxCell id="Lb71lkAeECrjLEzcPBdM-48" value="&lt;font style=&quot;font-size: 11px;&quot;&gt;数据可视化&lt;/font&gt;" style="text;strokeColor=none;fillColor=none;html=1;fontSize=24;fontStyle=1;verticalAlign=middle;align=center;" vertex="1" parent="1">
          <mxGeometry x="978" y="431" width="109" height="41" as="geometry" />
        </mxCell>
      </root>
    </mxGraphModel>
  </diagram>
</mxfile>
